<svg xmlns="http://www.w3.org/2000/svg" xmlns:xlink="http://www.w3.org/1999/xlink" zoomAndPan="magnify" preserveAspectRatio="xMidYMid meet" version="1.0" viewBox="75.9 73.35 222.03 93"><defs><clipPath id="e1b8d8ffd9"><path d="M 75.898438 73.351562 L 138.898438 73.351562 L 138.898438 166.351562 L 75.898438 166.351562 Z M 75.898438 73.351562 " clip-rule="nonzero"/></clipPath><clipPath id="f94b74777b"><path d="M 106.59375 104.433594 L 137.148438 104.433594 L 137.148438 134.992188 L 106.59375 134.992188 Z M 106.59375 104.433594 " clip-rule="nonzero"/></clipPath><clipPath id="999f748090"><path d="M 121.871094 104.433594 C 113.433594 104.433594 106.59375 111.277344 106.59375 119.714844 C 106.59375 128.152344 113.433594 134.992188 121.871094 134.992188 C 130.308594 134.992188 137.148438 128.152344 137.148438 119.714844 C 137.148438 111.277344 130.308594 104.433594 121.871094 104.433594 " clip-rule="nonzero"/></clipPath></defs><path fill="#333343" d="M 148.054688 120.617188 C 148.0625 120.402344 148.066406 120.195312 148.066406 119.964844 C 148.070312 119.617188 148.070312 119.246094 148.058594 118.867188 C 148.046875 118.640625 148.039062 118.410156 148.027344 118.175781 C 148 117.679688 147.953125 117.175781 147.890625 116.660156 C 147.789062 115.828125 147.65625 114.984375 147.492188 114.214844 C 147.382812 113.699219 147.253906 113.222656 147.136719 112.777344 C 146.886719 111.835938 146.675781 111.257812 146.542969 110.882812 C 146.480469 110.703125 146.507812 110.789062 146.429688 110.570312 C 146.375 110.421875 146.320312 110.285156 146.277344 110.164062 C 146.105469 109.722656 145.988281 109.464844 145.988281 109.464844 C 145.9375 109.335938 145.875 109.203125 145.8125 109.070312 C 145.683594 108.785156 145.554688 108.503906 145.421875 108.222656 L 145.222656 107.820312 L 145.097656 107.578125 C 145.097656 107.578125 145.070312 107.53125 145.019531 107.4375 C 145.019531 107.4375 145.015625 107.425781 145.003906 107.402344 C 144.992188 107.386719 144.984375 107.367188 144.976562 107.355469 C 144.972656 107.351562 144.972656 107.34375 144.972656 107.34375 C 144.976562 107.328125 144.980469 107.332031 144.984375 107.316406 C 145.777344 105.148438 147.859375 103.183594 150.714844 101.453125 C 153.578125 99.726562 156.761719 98.859375 160.261719 98.859375 C 162.925781 98.859375 165.46875 99.445312 167.886719 100.609375 C 170.300781 101.765625 172.222656 103.304688 173.652344 105.21875 L 173.652344 85.765625 L 184.152344 85.765625 L 184.152344 140.515625 L 173.652344 140.515625 L 173.652344 134.453125 C 172.371094 136.476562 170.566406 138.105469 168.246094 139.34375 C 165.933594 140.570312 163.246094 141.1875 160.183594 141.1875 C 156.734375 141.1875 153.578125 140.304688 150.714844 138.53125 C 148.351562 137.054688 146.398438 135.085938 144.855469 132.617188 C 144.855469 132.617188 144.785156 132.527344 144.773438 132.457031 C 144.773438 132.453125 144.773438 132.449219 144.773438 132.445312 C 144.773438 132.441406 144.777344 132.4375 144.78125 132.429688 C 144.789062 132.417969 144.796875 132.410156 144.800781 132.398438 C 144.816406 132.375 144.832031 132.339844 144.855469 132.296875 C 145.160156 131.738281 144.960938 132.09375 145.164062 131.71875 C 145.195312 131.65625 145.226562 131.59375 145.253906 131.539062 C 145.324219 131.402344 145.382812 131.289062 145.441406 131.171875 C 145.492188 131.0625 145.546875 130.949219 145.605469 130.820312 C 145.679688 130.664062 145.761719 130.488281 145.867188 130.242188 C 146.039062 129.855469 146.164062 129.542969 146.269531 129.28125 C 146.515625 128.65625 146.609375 128.34375 146.726562 128.023438 C 146.726562 128.023438 146.800781 127.796875 146.890625 127.507812 C 146.945312 127.332031 147 127.136719 147.054688 126.941406 C 147.113281 126.734375 147.171875 126.535156 147.210938 126.378906 C 147.230469 126.304688 147.257812 126.203125 147.28125 126.113281 C 147.371094 125.769531 147.453125 125.371094 147.453125 125.371094 C 147.480469 125.273438 147.492188 125.175781 147.511719 125.082031 C 147.546875 124.917969 147.585938 124.753906 147.613281 124.59375 C 147.695312 124.148438 147.769531 123.71875 147.820312 123.285156 C 147.820312 123.285156 147.871094 122.933594 147.886719 122.820312 C 147.949219 122.300781 147.914062 122.515625 147.933594 122.335938 C 148.019531 121.570312 148.046875 120.804688 148.054688 120.617188 Z M 173.730469 120.015625 C 173.730469 117.507812 173.234375 115.351562 172.246094 113.546875 C 171.253906 111.746094 169.921875 110.367188 168.246094 109.40625 C 166.566406 108.449219 164.769531 107.96875 162.855469 107.96875 C 160.925781 107.96875 159.144531 108.4375 157.511719 109.375 C 155.886719 110.3125 154.566406 111.683594 153.558594 113.484375 C 152.546875 115.277344 152.042969 117.40625 152.042969 119.875 C 152.042969 122.34375 152.546875 124.507812 153.558594 126.359375 C 154.566406 128.203125 155.902344 129.621094 157.558594 130.609375 C 159.214844 131.589844 160.980469 132.078125 162.855469 132.078125 C 164.769531 132.078125 166.566406 131.601562 168.246094 130.640625 C 169.921875 129.683594 171.253906 128.304688 172.246094 126.5 C 173.234375 124.699219 173.730469 122.539062 173.730469 120.015625 Z M 173.730469 120.015625 " fill-opacity="1" fill-rule="nonzero"/><path fill="#333343" d="M 232.390625 119.140625 C 232.390625 120.621094 232.289062 121.949219 232.09375 123.125 L 202.140625 123.125 C 202.378906 126.085938 203.410156 128.402344 205.234375 130.078125 C 207.066406 131.757812 209.3125 132.59375 211.96875 132.59375 C 215.820312 132.59375 218.5625 130.945312 220.1875 127.640625 L 231.359375 127.640625 C 230.171875 131.589844 227.898438 134.835938 224.546875 137.375 C 221.191406 139.917969 217.078125 141.1875 212.203125 141.1875 C 208.253906 141.1875 204.710938 140.3125 201.578125 138.5625 C 198.441406 136.804688 196 134.324219 194.25 131.125 C 192.5 127.917969 191.625 124.214844 191.625 120.015625 C 191.625 115.777344 192.488281 112.058594 194.21875 108.859375 C 195.945312 105.652344 198.363281 103.183594 201.46875 101.453125 C 204.570312 99.726562 208.148438 98.859375 212.203125 98.859375 C 216.097656 98.859375 219.585938 99.699219 222.671875 101.375 C 225.753906 103.054688 228.144531 105.433594 229.84375 108.515625 C 231.539062 111.601562 232.390625 115.140625 232.390625 119.140625 Z M 221.671875 116.171875 C 221.617188 113.507812 220.65625 111.375 218.78125 109.78125 C 216.90625 108.179688 214.613281 107.375 211.90625 107.375 C 209.332031 107.375 207.171875 108.152344 205.421875 109.703125 C 203.671875 111.257812 202.597656 113.414062 202.203125 116.171875 Z M 221.671875 116.171875 " fill-opacity="1" fill-rule="nonzero"/><path fill="#333343" d="M 250.300781 105.890625 C 251.621094 103.726562 253.355469 102.027344 255.503906 100.796875 C 257.648438 99.558594 260.105469 98.9375 262.878906 98.9375 L 262.878906 109.8125 L 260.128906 109.8125 C 256.878906 109.8125 254.425781 110.578125 252.769531 112.109375 C 251.121094 113.640625 250.300781 116.304688 250.300781 120.09375 L 250.300781 140.515625 L 239.941406 140.515625 L 239.941406 99.53125 L 250.300781 99.53125 Z M 250.300781 105.890625 " fill-opacity="1" fill-rule="nonzero"/><path fill="#333343" d="M 279.296875 132 L 297.5625 132 L 297.5625 140.515625 L 267.53125 140.515625 L 267.53125 132.15625 L 285.4375 108.03125 L 267.609375 108.03125 L 267.609375 99.53125 L 297.34375 99.53125 L 297.34375 107.890625 Z M 279.296875 132 " fill-opacity="1" fill-rule="nonzero"/><g clip-path="url(#e1b8d8ffd9)"><path fill="#333343" d="M 116.117188 73.367188 L 127.976562 73.367188 C 129.332031 73.367188 130.429688 74.472656 130.4375 75.835938 C 130.4375 75.84375 130.4375 75.851562 130.4375 75.855469 L 131 83.941406 C 131.011719 84.117188 131.132812 84.261719 131.300781 84.304688 C 133.859375 84.980469 136.304688 85.921875 138.609375 87.109375 C 138.609375 87.109375 138.613281 87.109375 138.613281 87.113281 C 138.832031 87.226562 138.898438 87.515625 138.746094 87.710938 L 133.128906 95.144531 C 133.019531 95.292969 132.820312 95.34375 132.648438 95.269531 C 131.691406 94.851562 130.703125 94.484375 129.691406 94.179688 C 128.394531 93.789062 127.054688 93.496094 125.683594 93.304688 C 124.859375 93.191406 124.027344 93.117188 123.183594 93.082031 C 122.808594 93.066406 122.429688 93.058594 122.046875 93.058594 C 121.320312 93.058594 120.597656 93.085938 119.882812 93.144531 C 112.09375 93.777344 105.25 97.789062 100.804688 103.722656 C 97.441406 108.210938 95.449219 113.796875 95.449219 119.851562 C 95.449219 134.652344 107.355469 146.648438 122.046875 146.648438 C 125.816406 146.648438 129.402344 145.859375 132.652344 144.433594 C 132.820312 144.359375 133.019531 144.414062 133.128906 144.5625 L 133.65625 145.257812 L 138.742188 151.988281 C 138.894531 152.1875 138.832031 152.480469 138.609375 152.59375 C 138.582031 152.609375 138.554688 152.621094 138.527344 152.636719 C 138.492188 152.65625 138.457031 152.671875 138.421875 152.691406 C 137.265625 153.277344 136.074219 153.804688 134.847656 154.265625 C 133.691406 154.703125 132.507812 155.082031 131.300781 155.398438 C 131.132812 155.441406 131.011719 155.589844 131 155.765625 L 130.4375 163.847656 C 130.4375 163.855469 130.4375 163.863281 130.4375 163.871094 C 130.429688 165.234375 129.332031 166.335938 127.976562 166.335938 L 116.117188 166.335938 C 114.761719 166.335938 113.664062 165.234375 113.660156 163.871094 C 113.660156 163.863281 113.660156 163.855469 113.660156 163.847656 L 113.097656 155.765625 C 113.085938 155.589844 112.964844 155.441406 112.796875 155.398438 C 109.546875 154.542969 106.472656 153.246094 103.640625 151.574219 C 103.492188 151.488281 103.300781 151.503906 103.171875 151.621094 L 97.097656 156.9375 C 97.09375 156.945312 97.085938 156.949219 97.082031 156.953125 C 96.121094 157.914062 94.570312 157.910156 93.613281 156.945312 L 88.5 151.796875 L 85.226562 148.496094 C 84.265625 147.535156 84.265625 145.96875 85.21875 145.003906 C 85.222656 144.996094 85.226562 144.992188 85.230469 144.984375 L 90.511719 138.867188 C 90.625 138.738281 90.640625 138.546875 90.554688 138.394531 C 88.898438 135.542969 87.609375 132.449219 86.761719 129.171875 C 86.714844 129.003906 86.570312 128.878906 86.398438 128.867188 L 78.371094 128.304688 C 78.363281 128.304688 78.359375 128.304688 78.351562 128.304688 C 76.996094 128.296875 75.902344 127.191406 75.902344 125.828125 L 75.902344 113.878906 C 75.902344 112.511719 76.996094 111.40625 78.351562 111.402344 C 78.359375 111.402344 78.363281 111.402344 78.371094 111.398438 L 86.398438 110.835938 C 86.570312 110.824219 86.714844 110.699219 86.761719 110.53125 C 87.609375 107.257812 88.898438 104.160156 90.554688 101.308594 C 90.640625 101.160156 90.625 100.96875 90.511719 100.835938 L 89.621094 99.804688 L 85.230469 94.71875 C 85.226562 94.714844 85.222656 94.707031 85.21875 94.703125 C 84.265625 93.734375 84.265625 92.171875 85.226562 91.207031 L 88.5 87.90625 L 93.613281 82.757812 C 94.570312 81.792969 96.121094 81.792969 97.082031 82.75 C 97.085938 82.757812 97.09375 82.761719 97.097656 82.765625 L 103.171875 88.085938 C 103.300781 88.199219 103.492188 88.214844 103.640625 88.128906 C 106.085938 86.6875 108.710938 85.519531 111.476562 84.679688 C 111.914062 84.546875 112.351562 84.421875 112.796875 84.304688 C 112.964844 84.261719 113.085938 84.113281 113.097656 83.941406 L 113.179688 82.742188 L 113.25 81.742188 L 113.457031 78.746094 L 113.660156 75.855469 C 113.660156 75.851562 113.660156 75.84375 113.660156 75.835938 C 113.664062 74.472656 114.761719 73.367188 116.117188 73.367188 " fill-opacity="1" fill-rule="nonzero"/></g><g clip-path="url(#f94b74777b)"><g clip-path="url(#999f748090)"><path fill="#333343" d="M 106.59375 104.433594 L 137.148438 104.433594 L 137.148438 134.992188 L 106.59375 134.992188 Z M 106.59375 104.433594 " fill-opacity="1" fill-rule="nonzero"/></g></g><path fill="#333343" d="M 229.53125 79.0625 L 229.53125 91.09375 L 227.109375 91.09375 L 227.109375 85.96875 L 221.96875 85.96875 L 221.96875 91.09375 L 219.546875 91.09375 L 219.546875 79.0625 L 221.96875 79.0625 L 221.96875 84.015625 L 227.109375 84.015625 L 227.109375 79.0625 Z M 229.53125 79.0625 " fill-opacity="1" fill-rule="nonzero"/><path fill="#333343" d="M 231.273438 86.28125 C 231.273438 85.324219 231.464844 84.46875 231.851562 83.71875 C 232.234375 82.96875 232.757812 82.398438 233.414062 82 C 234.078125 81.59375 234.820312 81.390625 235.632812 81.390625 C 236.351562 81.390625 236.976562 81.539062 237.507812 81.828125 C 238.039062 82.109375 238.464844 82.46875 238.789062 82.90625 L 238.789062 81.546875 L 241.226562 81.546875 L 241.226562 91.09375 L 238.789062 91.09375 L 238.789062 89.703125 C 238.484375 90.152344 238.058594 90.523438 237.507812 90.8125 C 236.964844 91.101562 236.335938 91.25 235.617188 91.25 C 234.8125 91.25 234.078125 91.046875 233.414062 90.640625 C 232.757812 90.226562 232.234375 89.640625 231.851562 88.890625 C 231.464844 88.132812 231.273438 87.261719 231.273438 86.28125 Z M 238.789062 86.3125 C 238.789062 85.730469 238.671875 85.230469 238.445312 84.8125 C 238.214844 84.398438 237.902344 84.078125 237.507812 83.859375 C 237.121094 83.632812 236.703125 83.515625 236.257812 83.515625 C 235.808594 83.515625 235.390625 83.625 235.007812 83.84375 C 234.632812 84.0625 234.324219 84.382812 234.085938 84.796875 C 233.855469 85.214844 233.742188 85.710938 233.742188 86.28125 C 233.742188 86.855469 233.855469 87.359375 234.085938 87.796875 C 234.324219 88.226562 234.636719 88.554688 235.023438 88.78125 C 235.40625 89.011719 235.820312 89.125 236.257812 89.125 C 236.703125 89.125 237.121094 89.015625 237.507812 88.796875 C 237.902344 88.570312 238.214844 88.246094 238.445312 87.828125 C 238.671875 87.414062 238.789062 86.90625 238.789062 86.3125 Z M 238.789062 86.3125 " fill-opacity="1" fill-rule="nonzero"/><path fill="#333343" d="M 246 83.03125 C 246.300781 82.523438 246.703125 82.125 247.203125 81.84375 C 247.703125 81.554688 248.273438 81.40625 248.921875 81.40625 L 248.921875 83.9375 L 248.28125 83.9375 C 247.519531 83.9375 246.945312 84.121094 246.5625 84.484375 C 246.1875 84.839844 246 85.460938 246 86.34375 L 246 91.09375 L 243.578125 91.09375 L 243.578125 81.546875 L 246 81.546875 Z M 246 83.03125 " fill-opacity="1" fill-rule="nonzero"/><path fill="#333343" d="M 253.347656 83.53125 L 253.347656 88.140625 C 253.347656 88.464844 253.425781 88.699219 253.582031 88.84375 C 253.738281 88.992188 253.996094 89.0625 254.363281 89.0625 L 255.488281 89.0625 L 255.488281 91.09375 L 253.972656 91.09375 C 251.929688 91.09375 250.910156 90.105469 250.910156 88.125 L 250.910156 83.53125 L 249.785156 83.53125 L 249.785156 81.546875 L 250.910156 81.546875 L 250.910156 79.1875 L 253.347656 79.1875 L 253.347656 81.546875 L 255.488281 81.546875 L 255.488281 83.53125 Z M 253.347656 83.53125 " fill-opacity="1" fill-rule="nonzero"/><path fill="#333343" d="M 256.59375 86.3125 C 256.59375 85.335938 256.796875 84.476562 257.203125 83.734375 C 257.609375 82.984375 258.164062 82.40625 258.875 82 C 259.582031 81.59375 260.398438 81.390625 261.328125 81.390625 C 262.503906 81.390625 263.476562 81.6875 264.25 82.28125 C 265.03125 82.875 265.554688 83.703125 265.828125 84.765625 L 263.21875 84.765625 C 263.082031 84.351562 262.847656 84.027344 262.515625 83.796875 C 262.191406 83.558594 261.789062 83.4375 261.3125 83.4375 C 260.613281 83.4375 260.0625 83.6875 259.65625 84.1875 C 259.257812 84.6875 259.0625 85.398438 259.0625 86.3125 C 259.0625 87.230469 259.257812 87.9375 259.65625 88.4375 C 260.0625 88.9375 260.613281 89.1875 261.3125 89.1875 C 262.28125 89.1875 262.914062 88.75 263.21875 87.875 L 265.828125 87.875 C 265.554688 88.90625 265.03125 89.730469 264.25 90.34375 C 263.46875 90.949219 262.492188 91.25 261.328125 91.25 C 260.398438 91.25 259.582031 91.046875 258.875 90.640625 C 258.164062 90.234375 257.609375 89.664062 257.203125 88.921875 C 256.796875 88.171875 256.59375 87.304688 256.59375 86.3125 Z M 256.59375 86.3125 " fill-opacity="1" fill-rule="nonzero"/><path fill="#333343" d="M 267.589844 78.34375 L 270.011719 78.34375 L 270.011719 91.09375 L 267.589844 91.09375 Z M 267.589844 78.34375 " fill-opacity="1" fill-rule="nonzero"/><path fill="#333343" d="M 273.597656 80.40625 C 273.179688 80.40625 272.832031 80.273438 272.550781 80 C 272.269531 79.730469 272.128906 79.398438 272.128906 79 C 272.128906 78.59375 272.269531 78.257812 272.550781 77.984375 C 272.832031 77.714844 273.179688 77.578125 273.597656 77.578125 C 274.023438 77.578125 274.378906 77.714844 274.660156 77.984375 C 274.941406 78.257812 275.082031 78.59375 275.082031 79 C 275.082031 79.398438 274.941406 79.730469 274.660156 80 C 274.378906 80.273438 274.023438 80.40625 273.597656 80.40625 Z M 274.800781 81.546875 L 274.800781 91.09375 L 272.378906 91.09375 L 272.378906 81.546875 Z M 274.800781 81.546875 " fill-opacity="1" fill-rule="nonzero"/><path fill="#333343" d="M 281.542969 83.53125 L 279.871094 83.53125 L 279.871094 91.09375 L 277.433594 91.09375 L 277.433594 83.53125 L 276.339844 83.53125 L 276.339844 81.546875 L 277.433594 81.546875 L 277.433594 81.0625 C 277.433594 79.898438 277.765625 79.039062 278.433594 78.484375 C 279.097656 77.933594 280.105469 77.671875 281.449219 77.703125 L 281.449219 79.734375 C 280.855469 79.726562 280.441406 79.824219 280.214844 80.03125 C 279.984375 80.242188 279.871094 80.617188 279.871094 81.15625 L 279.871094 81.546875 L 281.542969 81.546875 Z M 281.542969 83.53125 " fill-opacity="1" fill-rule="nonzero"/><path fill="#333343" d="M 287.488281 83.53125 L 285.816406 83.53125 L 285.816406 91.09375 L 283.378906 91.09375 L 283.378906 83.53125 L 282.285156 83.53125 L 282.285156 81.546875 L 283.378906 81.546875 L 283.378906 81.0625 C 283.378906 79.898438 283.710938 79.039062 284.378906 78.484375 C 285.042969 77.933594 286.050781 77.671875 287.394531 77.703125 L 287.394531 79.734375 C 286.800781 79.726562 286.386719 79.824219 286.160156 80.03125 C 285.929688 80.242188 285.816406 80.617188 285.816406 81.15625 L 285.816406 81.546875 L 287.488281 81.546875 Z M 287.488281 83.53125 " fill-opacity="1" fill-rule="nonzero"/><path fill="#333343" d="M 297.929688 86.109375 C 297.929688 86.453125 297.90625 86.765625 297.867188 87.046875 L 290.882812 87.046875 C 290.945312 87.734375 291.183594 88.277344 291.601562 88.671875 C 292.027344 89.058594 292.554688 89.25 293.179688 89.25 C 294.074219 89.25 294.710938 88.867188 295.085938 88.09375 L 297.695312 88.09375 C 297.414062 89.011719 296.882812 89.765625 296.101562 90.359375 C 295.320312 90.953125 294.359375 91.25 293.226562 91.25 C 292.308594 91.25 291.484375 91.046875 290.757812 90.640625 C 290.027344 90.234375 289.453125 89.65625 289.039062 88.90625 C 288.632812 88.15625 288.429688 87.292969 288.429688 86.3125 C 288.429688 85.335938 288.632812 84.46875 289.039062 83.71875 C 289.445312 82.96875 290.007812 82.398438 290.726562 82 C 291.453125 81.59375 292.289062 81.390625 293.226562 81.390625 C 294.132812 81.390625 294.945312 81.589844 295.664062 81.984375 C 296.382812 82.371094 296.9375 82.921875 297.335938 83.640625 C 297.730469 84.359375 297.929688 85.183594 297.929688 86.109375 Z M 295.429688 85.421875 C 295.417969 84.808594 295.195312 84.3125 294.757812 83.9375 C 294.320312 83.5625 293.789062 83.375 293.164062 83.375 C 292.558594 83.375 292.054688 83.558594 291.648438 83.921875 C 291.242188 84.277344 290.992188 84.777344 290.898438 85.421875 Z M 295.429688 85.421875 " fill-opacity="1" fill-rule="nonzero"/></svg>