<svg xmlns="http://www.w3.org/2000/svg" xmlns:xlink="http://www.w3.org/1999/xlink" zoomAndPan="magnify" preserveAspectRatio="xMidYMid meet" version="1.0" viewBox="92.62 79.21 188.73 79.05"><defs><clipPath id="57172cc3a6"><path d="M 92.617188 79.210938 L 146.167969 79.210938 L 146.167969 158.261719 L 92.617188 158.261719 Z M 92.617188 79.210938 " clip-rule="nonzero"/></clipPath><clipPath id="ed7d69b21c"><path d="M 118.710938 105.632812 L 144.679688 105.632812 L 144.679688 131.605469 L 118.710938 131.605469 Z M 118.710938 105.632812 " clip-rule="nonzero"/></clipPath><clipPath id="2d2e35d025"><path d="M 131.695312 105.632812 C 124.523438 105.632812 118.710938 111.449219 118.710938 118.621094 C 118.710938 125.792969 124.523438 131.605469 131.695312 131.605469 C 138.867188 131.605469 144.679688 125.792969 144.679688 118.621094 C 144.679688 111.449219 138.867188 105.632812 131.695312 105.632812 " clip-rule="nonzero"/></clipPath></defs><path fill="#c1ff72" d="M 153.949219 119.386719 C 153.957031 119.203125 153.960938 119.027344 153.960938 118.832031 C 153.964844 118.539062 153.964844 118.222656 153.953125 117.898438 C 153.945312 117.707031 153.9375 117.511719 153.925781 117.3125 C 153.90625 116.890625 153.863281 116.460938 153.8125 116.023438 C 153.726562 115.316406 153.613281 114.597656 153.472656 113.945312 C 153.378906 113.507812 153.269531 113.101562 153.171875 112.722656 C 152.957031 111.921875 152.777344 111.433594 152.664062 111.113281 C 152.613281 110.960938 152.636719 111.035156 152.570312 110.847656 C 152.523438 110.722656 152.476562 110.605469 152.441406 110.503906 C 152.292969 110.125 152.195312 109.90625 152.195312 109.90625 C 152.152344 109.796875 152.097656 109.683594 152.046875 109.574219 C 151.933594 109.328125 151.824219 109.089844 151.714844 108.851562 L 151.542969 108.511719 L 151.4375 108.304688 C 151.4375 108.304688 151.414062 108.265625 151.371094 108.183594 C 151.371094 108.183594 151.367188 108.175781 151.359375 108.15625 C 151.347656 108.140625 151.339844 108.125 151.335938 108.113281 C 151.332031 108.113281 151.332031 108.105469 151.332031 108.105469 C 151.335938 108.089844 151.335938 108.09375 151.339844 108.082031 C 152.015625 106.238281 153.785156 104.570312 156.210938 103.097656 C 158.644531 101.628906 161.351562 100.894531 164.328125 100.894531 C 166.589844 100.894531 168.753906 101.390625 170.808594 102.378906 C 172.859375 103.363281 174.492188 104.671875 175.707031 106.296875 L 175.707031 89.765625 L 184.632812 89.765625 L 184.632812 136.300781 L 175.707031 136.300781 L 175.707031 131.148438 C 174.621094 132.867188 173.085938 134.253906 171.113281 135.304688 C 169.148438 136.347656 166.863281 136.871094 164.261719 136.871094 C 161.328125 136.871094 158.644531 136.121094 156.210938 134.613281 C 154.203125 133.359375 152.542969 131.683594 151.230469 129.585938 C 151.230469 129.585938 151.171875 129.511719 151.160156 129.449219 C 151.160156 129.449219 151.160156 129.445312 151.160156 129.441406 C 151.160156 129.4375 151.164062 129.433594 151.167969 129.425781 C 151.175781 129.417969 151.183594 129.410156 151.183594 129.402344 C 151.199219 129.382812 151.210938 129.351562 151.230469 129.316406 C 151.492188 128.839844 151.320312 129.140625 151.492188 128.824219 C 151.519531 128.769531 151.546875 128.71875 151.570312 128.671875 C 151.628906 128.554688 151.679688 128.457031 151.730469 128.359375 C 151.773438 128.265625 151.820312 128.167969 151.867188 128.058594 C 151.933594 127.925781 152 127.777344 152.089844 127.566406 C 152.238281 127.238281 152.34375 126.972656 152.433594 126.75 C 152.644531 126.21875 152.722656 125.953125 152.820312 125.683594 C 152.820312 125.683594 152.886719 125.488281 152.960938 125.242188 C 153.007812 125.09375 153.054688 124.929688 153.101562 124.761719 C 153.152344 124.585938 153.199219 124.417969 153.234375 124.285156 C 153.25 124.222656 153.273438 124.136719 153.292969 124.058594 C 153.371094 123.765625 153.441406 123.429688 153.441406 123.429688 C 153.460938 123.34375 153.472656 123.261719 153.488281 123.183594 C 153.519531 123.042969 153.550781 122.902344 153.574219 122.765625 C 153.644531 122.390625 153.707031 122.023438 153.75 121.65625 C 153.75 121.65625 153.792969 121.355469 153.808594 121.261719 C 153.859375 120.816406 153.832031 121 153.847656 120.847656 C 153.921875 120.199219 153.945312 119.546875 153.949219 119.386719 Z M 175.773438 118.875 C 175.773438 116.746094 175.355469 114.910156 174.511719 113.378906 C 173.671875 111.847656 172.539062 110.675781 171.113281 109.859375 C 169.6875 109.042969 168.160156 108.636719 166.53125 108.636719 C 164.890625 108.636719 163.378906 109.035156 161.988281 109.832031 C 160.609375 110.628906 159.484375 111.792969 158.628906 113.324219 C 157.769531 114.847656 157.339844 116.65625 157.339844 118.757812 C 157.339844 120.855469 157.769531 122.695312 158.628906 124.269531 C 159.484375 125.835938 160.621094 127.039062 162.027344 127.878906 C 163.4375 128.714844 164.9375 129.128906 166.53125 129.128906 C 168.160156 129.128906 169.6875 128.722656 171.113281 127.90625 C 172.539062 127.09375 173.671875 125.921875 174.511719 124.386719 C 175.355469 122.855469 175.773438 121.019531 175.773438 118.875 Z M 175.773438 118.875 " fill-opacity="1" fill-rule="nonzero"/><path fill="#c1ff72" d="M 225.636719 118.132812 C 225.636719 119.390625 225.550781 120.519531 225.382812 121.519531 L 199.925781 121.519531 C 200.125 124.035156 201.003906 126.003906 202.554688 127.429688 C 204.109375 128.855469 206.019531 129.566406 208.277344 129.566406 C 211.550781 129.566406 213.882812 128.164062 215.265625 125.355469 L 224.761719 125.355469 C 223.75 128.714844 221.816406 131.472656 218.96875 133.632812 C 216.117188 135.792969 212.621094 136.871094 208.476562 136.871094 C 205.121094 136.871094 202.109375 136.128906 199.445312 134.640625 C 196.78125 133.144531 194.703125 131.039062 193.21875 128.320312 C 191.730469 125.59375 190.984375 122.445312 190.984375 118.875 C 190.984375 115.273438 191.71875 112.113281 193.191406 109.394531 C 194.65625 106.667969 196.714844 104.570312 199.351562 103.097656 C 201.988281 101.628906 205.03125 100.894531 208.476562 100.894531 C 211.789062 100.894531 214.753906 101.605469 217.375 103.03125 C 219.996094 104.460938 222.027344 106.480469 223.472656 109.101562 C 224.914062 111.722656 225.636719 114.730469 225.636719 118.132812 Z M 216.527344 115.609375 C 216.480469 113.34375 215.664062 111.53125 214.070312 110.175781 C 212.476562 108.816406 210.527344 108.132812 208.226562 108.132812 C 206.035156 108.132812 204.199219 108.792969 202.714844 110.109375 C 201.226562 111.433594 200.3125 113.265625 199.976562 115.609375 Z M 216.527344 115.609375 " fill-opacity="1" fill-rule="nonzero"/><path fill="#c1ff72" d="M 240.859375 106.871094 C 241.980469 105.03125 243.457031 103.585938 245.28125 102.539062 C 247.105469 101.488281 249.195312 100.960938 251.550781 100.960938 L 251.550781 110.203125 L 249.214844 110.203125 C 246.453125 110.203125 244.367188 110.855469 242.957031 112.15625 C 241.558594 113.457031 240.859375 115.722656 240.859375 118.941406 L 240.859375 136.300781 L 232.054688 136.300781 L 232.054688 101.464844 L 240.859375 101.464844 Z M 240.859375 106.871094 " fill-opacity="1" fill-rule="nonzero"/><path fill="#c1ff72" d="M 265.507812 129.0625 L 281.03125 129.0625 L 281.03125 136.300781 L 255.507812 136.300781 L 255.507812 129.195312 L 270.726562 108.6875 L 255.574219 108.6875 L 255.574219 101.464844 L 280.847656 101.464844 L 280.847656 108.570312 Z M 265.507812 129.0625 " fill-opacity="1" fill-rule="nonzero"/><g clip-path="url(#57172cc3a6)"><path fill="#c1ff72" d="M 126.804688 79.226562 L 136.882812 79.226562 C 138.035156 79.226562 138.96875 80.164062 138.976562 81.324219 C 138.976562 81.332031 138.976562 81.335938 138.976562 81.339844 L 139.453125 88.214844 C 139.464844 88.363281 139.566406 88.484375 139.710938 88.523438 C 141.886719 89.097656 143.964844 89.898438 145.921875 90.90625 C 145.921875 90.90625 145.925781 90.90625 145.925781 90.910156 C 146.113281 91.003906 146.167969 91.25 146.039062 91.417969 L 141.265625 97.734375 C 141.171875 97.863281 141 97.90625 140.855469 97.84375 C 140.042969 97.488281 139.203125 97.175781 138.34375 96.914062 C 137.238281 96.582031 136.101562 96.335938 134.933594 96.171875 C 134.234375 96.074219 133.527344 96.011719 132.808594 95.984375 C 132.492188 95.96875 132.167969 95.960938 131.84375 95.960938 C 131.226562 95.960938 130.613281 95.984375 130.003906 96.035156 C 123.382812 96.574219 117.566406 99.984375 113.789062 105.027344 C 110.929688 108.84375 109.234375 113.589844 109.234375 118.738281 C 109.234375 131.316406 119.355469 141.511719 131.84375 141.511719 C 135.046875 141.511719 138.097656 140.84375 140.859375 139.632812 C 141 139.566406 141.171875 139.613281 141.265625 139.742188 L 141.710938 140.332031 L 146.035156 146.050781 C 146.164062 146.222656 146.113281 146.46875 145.921875 146.566406 C 145.898438 146.582031 145.875 146.589844 145.851562 146.601562 C 145.824219 146.621094 145.792969 146.632812 145.761719 146.648438 C 144.78125 147.148438 143.765625 147.597656 142.726562 147.988281 C 141.742188 148.359375 140.734375 148.683594 139.710938 148.949219 C 139.566406 148.988281 139.464844 149.113281 139.453125 149.261719 L 138.976562 156.132812 C 138.976562 156.140625 138.976562 156.144531 138.976562 156.152344 C 138.96875 157.3125 138.035156 158.246094 136.882812 158.246094 L 126.804688 158.246094 C 125.652344 158.246094 124.71875 157.3125 124.714844 156.152344 C 124.714844 156.144531 124.714844 156.140625 124.714844 156.132812 L 124.238281 149.261719 C 124.226562 149.113281 124.125 148.988281 123.980469 148.949219 C 121.21875 148.222656 118.605469 147.121094 116.199219 145.699219 C 116.074219 145.628906 115.910156 145.640625 115.800781 145.738281 L 110.636719 150.257812 C 110.632812 150.265625 110.628906 150.269531 110.625 150.273438 C 109.808594 151.089844 108.488281 151.085938 107.675781 150.265625 L 103.328125 145.890625 L 100.546875 143.082031 C 99.730469 142.265625 99.730469 140.9375 100.539062 140.117188 C 100.542969 140.109375 100.546875 140.105469 100.550781 140.097656 L 105.039062 134.898438 C 105.136719 134.789062 105.148438 134.628906 105.074219 134.496094 C 103.667969 132.074219 102.574219 129.445312 101.851562 126.660156 C 101.8125 126.515625 101.6875 126.410156 101.542969 126.398438 L 94.71875 125.921875 C 94.714844 125.921875 94.710938 125.921875 94.703125 125.921875 C 93.550781 125.914062 92.621094 124.976562 92.621094 123.816406 L 92.621094 113.660156 C 92.621094 112.496094 93.550781 111.558594 94.703125 111.554688 C 94.710938 111.554688 94.714844 111.554688 94.71875 111.550781 L 101.542969 111.074219 C 101.6875 111.0625 101.8125 110.957031 101.851562 110.8125 C 102.574219 108.03125 103.667969 105.398438 105.074219 102.976562 C 105.148438 102.847656 105.136719 102.6875 105.039062 102.574219 L 104.28125 101.695312 L 100.550781 97.375 C 100.546875 97.371094 100.542969 97.363281 100.539062 97.359375 C 99.730469 96.535156 99.730469 95.207031 100.546875 94.390625 L 103.328125 91.582031 L 107.675781 87.207031 C 108.488281 86.386719 109.808594 86.386719 110.625 87.199219 C 110.628906 87.207031 110.632812 87.210938 110.636719 87.214844 L 115.800781 91.734375 C 115.910156 91.832031 116.074219 91.84375 116.199219 91.773438 C 118.277344 90.546875 120.507812 89.554688 122.859375 88.839844 C 123.230469 88.726562 123.601562 88.621094 123.980469 88.523438 C 124.125 88.484375 124.226562 88.359375 124.238281 88.214844 L 124.308594 87.195312 L 124.367188 86.34375 L 124.542969 83.796875 L 124.714844 81.339844 C 124.714844 81.335938 124.714844 81.332031 124.714844 81.324219 C 124.71875 80.164062 125.652344 79.226562 126.804688 79.226562 " fill-opacity="1" fill-rule="nonzero"/></g><g clip-path="url(#ed7d69b21c)"><g clip-path="url(#2d2e35d025)"><path fill="#fcfbfc" d="M 118.710938 105.632812 L 144.679688 105.632812 L 144.679688 131.605469 L 118.710938 131.605469 Z M 118.710938 105.632812 " fill-opacity="1" fill-rule="nonzero"/></g></g><path fill="#fcfbfc" d="M 223.207031 84.066406 L 223.207031 94.292969 L 221.148438 94.292969 L 221.148438 89.9375 L 216.777344 89.9375 L 216.777344 94.292969 L 214.71875 94.292969 L 214.71875 84.066406 L 216.777344 84.066406 L 216.777344 88.277344 L 221.148438 88.277344 L 221.148438 84.066406 Z M 223.207031 84.066406 " fill-opacity="1" fill-rule="nonzero"/><path fill="#fcfbfc" d="M 224.6875 90.203125 C 224.6875 89.386719 224.847656 88.660156 225.179688 88.023438 C 225.503906 87.386719 225.949219 86.902344 226.507812 86.5625 C 227.070312 86.21875 227.703125 86.046875 228.390625 86.046875 C 229.003906 86.046875 229.535156 86.171875 229.984375 86.417969 C 230.4375 86.65625 230.800781 86.960938 231.074219 87.332031 L 231.074219 86.179688 L 233.148438 86.179688 L 233.148438 94.292969 L 231.074219 94.292969 L 231.074219 93.109375 C 230.816406 93.492188 230.453125 93.808594 229.984375 94.054688 C 229.523438 94.300781 228.988281 94.425781 228.378906 94.425781 C 227.695312 94.425781 227.070312 94.253906 226.507812 93.90625 C 225.949219 93.554688 225.503906 93.058594 225.179688 92.421875 C 224.847656 91.777344 224.6875 91.035156 224.6875 90.203125 Z M 231.074219 90.230469 C 231.074219 89.734375 230.976562 89.308594 230.78125 88.953125 C 230.585938 88.601562 230.320312 88.328125 229.984375 88.144531 C 229.65625 87.949219 229.300781 87.851562 228.921875 87.851562 C 228.542969 87.851562 228.1875 87.945312 227.859375 88.128906 C 227.542969 88.316406 227.28125 88.589844 227.078125 88.941406 C 226.882812 89.296875 226.785156 89.71875 226.785156 90.203125 C 226.785156 90.691406 226.882812 91.117188 227.078125 91.492188 C 227.28125 91.855469 227.546875 92.132812 227.875 92.328125 C 228.199219 92.523438 228.550781 92.621094 228.921875 92.621094 C 229.300781 92.621094 229.65625 92.527344 229.984375 92.339844 C 230.320312 92.148438 230.585938 91.871094 230.78125 91.515625 C 230.976562 91.164062 231.074219 90.734375 231.074219 90.230469 Z M 231.074219 90.230469 " fill-opacity="1" fill-rule="nonzero"/><path fill="#fcfbfc" d="M 237.203125 87.441406 C 237.460938 87.007812 237.800781 86.667969 238.226562 86.429688 C 238.652344 86.183594 239.136719 86.058594 239.6875 86.058594 L 239.6875 88.210938 L 239.144531 88.210938 C 238.496094 88.210938 238.007812 88.367188 237.683594 88.675781 C 237.363281 88.976562 237.203125 89.503906 237.203125 90.253906 L 237.203125 94.292969 L 235.144531 94.292969 L 235.144531 86.179688 L 237.203125 86.179688 Z M 237.203125 87.441406 " fill-opacity="1" fill-rule="nonzero"/><path fill="#fcfbfc" d="M 243.449219 87.863281 L 243.449219 91.78125 C 243.449219 92.058594 243.515625 92.257812 243.648438 92.378906 C 243.78125 92.507812 244 92.566406 244.3125 92.566406 L 245.269531 92.566406 L 245.269531 94.292969 L 243.980469 94.292969 C 242.246094 94.292969 241.378906 93.453125 241.378906 91.769531 L 241.378906 87.863281 L 240.421875 87.863281 L 240.421875 86.179688 L 241.378906 86.179688 L 241.378906 84.171875 L 243.449219 84.171875 L 243.449219 86.179688 L 245.269531 86.179688 L 245.269531 87.863281 Z M 243.449219 87.863281 " fill-opacity="1" fill-rule="nonzero"/><path fill="#fcfbfc" d="M 246.210938 90.230469 C 246.210938 89.398438 246.382812 88.667969 246.726562 88.039062 C 247.074219 87.398438 247.542969 86.910156 248.148438 86.5625 C 248.75 86.21875 249.441406 86.046875 250.234375 86.046875 C 251.234375 86.046875 252.058594 86.296875 252.71875 86.800781 C 253.382812 87.308594 253.824219 88.011719 254.058594 88.914062 L 251.839844 88.914062 C 251.722656 88.5625 251.523438 88.285156 251.242188 88.089844 C 250.96875 87.886719 250.625 87.785156 250.21875 87.785156 C 249.625 87.785156 249.15625 87.996094 248.8125 88.421875 C 248.472656 88.847656 248.308594 89.453125 248.308594 90.230469 C 248.308594 91.007812 248.472656 91.609375 248.8125 92.035156 C 249.15625 92.460938 249.625 92.671875 250.21875 92.671875 C 251.042969 92.671875 251.582031 92.300781 251.839844 91.558594 L 254.058594 91.558594 C 253.824219 92.433594 253.382812 93.132812 252.71875 93.65625 C 252.054688 94.167969 251.222656 94.425781 250.234375 94.425781 C 249.441406 94.425781 248.75 94.253906 248.148438 93.90625 C 247.542969 93.5625 247.074219 93.078125 246.726562 92.445312 C 246.382812 91.808594 246.210938 91.070312 246.210938 90.230469 Z M 246.210938 90.230469 " fill-opacity="1" fill-rule="nonzero"/><path fill="#fcfbfc" d="M 255.554688 83.457031 L 257.613281 83.457031 L 257.613281 94.292969 L 255.554688 94.292969 Z M 255.554688 83.457031 " fill-opacity="1" fill-rule="nonzero"/><path fill="#fcfbfc" d="M 260.664062 85.207031 C 260.308594 85.207031 260.011719 85.09375 259.773438 84.863281 C 259.535156 84.632812 259.414062 84.351562 259.414062 84.011719 C 259.414062 83.667969 259.535156 83.382812 259.773438 83.148438 C 260.011719 82.921875 260.308594 82.804688 260.664062 82.804688 C 261.023438 82.804688 261.328125 82.921875 261.566406 83.148438 C 261.804688 83.382812 261.925781 83.667969 261.925781 84.011719 C 261.925781 84.351562 261.804688 84.632812 261.566406 84.863281 C 261.328125 85.09375 261.023438 85.207031 260.664062 85.207031 Z M 261.683594 86.179688 L 261.683594 94.292969 L 259.625 94.292969 L 259.625 86.179688 Z M 261.683594 86.179688 " fill-opacity="1" fill-rule="nonzero"/><path fill="#fcfbfc" d="M 267.414062 87.863281 L 265.996094 87.863281 L 265.996094 94.292969 L 263.921875 94.292969 L 263.921875 87.863281 L 262.992188 87.863281 L 262.992188 86.179688 L 263.921875 86.179688 L 263.921875 85.765625 C 263.921875 84.777344 264.207031 84.046875 264.773438 83.574219 C 265.335938 83.105469 266.195312 82.882812 267.335938 82.910156 L 267.335938 84.636719 C 266.832031 84.628906 266.480469 84.714844 266.285156 84.890625 C 266.089844 85.070312 265.996094 85.386719 265.996094 85.847656 L 265.996094 86.179688 L 267.414062 86.179688 Z M 267.414062 87.863281 " fill-opacity="1" fill-rule="nonzero"/><path fill="#fcfbfc" d="M 272.46875 87.863281 L 271.046875 87.863281 L 271.046875 94.292969 L 268.976562 94.292969 L 268.976562 87.863281 L 268.046875 87.863281 L 268.046875 86.179688 L 268.976562 86.179688 L 268.976562 85.765625 C 268.976562 84.777344 269.257812 84.046875 269.828125 83.574219 C 270.390625 83.105469 271.246094 82.882812 272.390625 82.910156 L 272.390625 84.636719 C 271.886719 84.628906 271.53125 84.714844 271.339844 84.890625 C 271.144531 85.070312 271.046875 85.386719 271.046875 85.847656 L 271.046875 86.179688 L 272.46875 86.179688 Z M 272.46875 87.863281 " fill-opacity="1" fill-rule="nonzero"/><path fill="#fcfbfc" d="M 281.34375 90.054688 C 281.34375 90.347656 281.324219 90.613281 281.292969 90.851562 L 275.355469 90.851562 C 275.40625 91.4375 275.609375 91.898438 275.964844 92.234375 C 276.328125 92.5625 276.777344 92.726562 277.308594 92.726562 C 278.066406 92.726562 278.609375 92.398438 278.925781 91.742188 L 281.144531 91.742188 C 280.90625 92.523438 280.453125 93.164062 279.789062 93.667969 C 279.125 94.171875 278.308594 94.425781 277.347656 94.425781 C 276.566406 94.425781 275.867188 94.253906 275.25 93.90625 C 274.628906 93.5625 274.140625 93.070312 273.789062 92.433594 C 273.441406 91.796875 273.269531 91.0625 273.269531 90.230469 C 273.269531 89.398438 273.441406 88.660156 273.789062 88.023438 C 274.132812 87.386719 274.609375 86.902344 275.222656 86.5625 C 275.839844 86.21875 276.550781 86.046875 277.347656 86.046875 C 278.117188 86.046875 278.808594 86.214844 279.417969 86.550781 C 280.03125 86.878906 280.5 87.347656 280.839844 87.957031 C 281.175781 88.570312 281.34375 89.269531 281.34375 90.054688 Z M 279.21875 89.472656 C 279.210938 88.949219 279.019531 88.527344 278.648438 88.210938 C 278.277344 87.890625 277.824219 87.730469 277.292969 87.730469 C 276.777344 87.730469 276.351562 87.886719 276.003906 88.195312 C 275.660156 88.5 275.449219 88.921875 275.367188 89.472656 Z M 279.21875 89.472656 " fill-opacity="1" fill-rule="nonzero"/></svg>